<?xml version="1.0" encoding="UTF-8" standalone="no"?>
<!-- Created with Inkscape (http://www.inkscape.org/) -->

<svg
   xmlns:dc="http://purl.org/dc/elements/1.1/"
   xmlns:cc="http://creativecommons.org/ns#"
   xmlns:rdf="http://www.w3.org/1999/02/22-rdf-syntax-ns#"
   xmlns:svg="http://www.w3.org/2000/svg"
   xmlns="http://www.w3.org/2000/svg"
   xmlns:xlink="http://www.w3.org/1999/xlink"
   xmlns:sodipodi="http://sodipodi.sourceforge.net/DTD/sodipodi-0.dtd"
   xmlns:inkscape="http://www.inkscape.org/namespaces/inkscape"
   width="75"
   height="75"
   id="svg2"
   version="1.1"
   inkscape:version="0.48.4 r9939"
   sodipodi:docname="squad-logo.svg"
   inkscape:export-filename="D:\Programmation\workspace\proto-game\materials\logo ultramarine.png"
   inkscape:export-xdpi="270"
   inkscape:export-ydpi="270">
  <defs
     id="defs4">
    <linearGradient
       id="linearGradient4003">
      <stop
         style="stop-color:#d40000;stop-opacity:1;"
         offset="0"
         id="stop4005" />
      <stop
         style="stop-color:#600000;stop-opacity:1;"
         offset="1"
         id="stop4007" />
    </linearGradient>
    <linearGradient
       id="linearGradient3895">
      <stop
         style="stop-color:#ffffff;stop-opacity:1;"
         offset="0"
         id="stop3897" />
      <stop
         id="stop3903"
         offset="0.71591598"
         style="stop-color:#e3e3e3;stop-opacity:1;" />
      <stop
         style="stop-color:#9f9f9f;stop-opacity:1;"
         offset="1"
         id="stop3905" />
    </linearGradient>
    <linearGradient
       id="linearGradient3887">
      <stop
         style="stop-color:#8d1f11;stop-opacity:1;"
         offset="0"
         id="stop3889" />
      <stop
         style="stop-color:#cb4c05;stop-opacity:1;"
         offset="1"
         id="stop3891" />
    </linearGradient>
    <linearGradient
       id="linearGradient4013">
      <stop
         style="stop-color:#d0dfe5;stop-opacity:1;"
         offset="0"
         id="stop4015" />
      <stop
         style="stop-color:#aebbc0;stop-opacity:0;"
         offset="1"
         id="stop4017" />
    </linearGradient>
    <linearGradient
       id="linearGradient3979">
      <stop
         style="stop-color:#7296a7;stop-opacity:1;"
         offset="0"
         id="stop3981" />
      <stop
         style="stop-color:#331b0b;stop-opacity:1;"
         offset="1"
         id="stop3983" />
    </linearGradient>
    <radialGradient
       inkscape:collect="always"
       xlink:href="#linearGradient3979"
       id="radialGradient4001"
       cx="43.872669"
       cy="38.622002"
       fx="43.872669"
       fy="38.622002"
       r="11.696428"
       gradientTransform="matrix(0.73442273,-0.01862976,0.02040817,0.70083604,11.251827,12.192675)"
       gradientUnits="userSpaceOnUse" />
    <linearGradient
       inkscape:collect="always"
       xlink:href="#linearGradient4013"
       id="linearGradient4019"
       x1="37.84045"
       y1="41.67622"
       x2="37.604774"
       y2="43.949619"
       gradientUnits="userSpaceOnUse"
       gradientTransform="matrix(1.0355322,0,0,1.0116388,-1.2517981,-1.2476728)" />
    <linearGradient
       id="linearGradient3951">
      <stop
         style="stop-color:#d6801f;stop-opacity:1;"
         offset="0"
         id="stop3953" />
      <stop
         style="stop-color:#741e11;stop-opacity:1;"
         offset="1"
         id="stop3955" />
    </linearGradient>
    <linearGradient
       y2="50.30093"
       x2="50.001999"
       y1="21.11878"
       x1="22.098293"
       gradientTransform="matrix(1.0627575,0,0,1.038236,-2.3700125,-1.7762295)"
       gradientUnits="userSpaceOnUse"
       id="linearGradient3975"
       xlink:href="#linearGradient3951"
       inkscape:collect="always" />
    <linearGradient
       inkscape:collect="always"
       xlink:href="#linearGradient3887"
       id="linearGradient3893"
       x1="46.074337"
       y1="49.776279"
       x2="36.529236"
       y2="20.427557"
       gradientUnits="userSpaceOnUse" />
    <radialGradient
       inkscape:collect="always"
       xlink:href="#linearGradient3895"
       id="radialGradient3901"
       cx="57.934608"
       cy="51.051655"
       fx="57.934608"
       fy="51.051655"
       r="37.123108"
       gradientUnits="userSpaceOnUse"
       gradientTransform="matrix(1.2974252,0.03993003,-0.03322413,1.0795347,-14.644181,-5.9016345)" />
    <linearGradient
       inkscape:collect="always"
       xlink:href="#linearGradient4003"
       id="linearGradient4009"
       x1="39.595348"
       y1="33.429947"
       x2="46.10754"
       y2="55.281376"
       gradientUnits="userSpaceOnUse" />
    <linearGradient
       inkscape:collect="always"
       xlink:href="#linearGradient4003"
       id="linearGradient4009-8"
       x1="39.595348"
       y1="33.429947"
       x2="46.10754"
       y2="55.281376"
       gradientUnits="userSpaceOnUse" />
    <linearGradient
       inkscape:collect="always"
       xlink:href="#linearGradient4003"
       id="linearGradient4009-1"
       x1="39.595348"
       y1="33.429947"
       x2="46.10754"
       y2="55.281376"
       gradientUnits="userSpaceOnUse" />
  </defs>
  <sodipodi:namedview
     id="base"
     pagecolor="#ffffff"
     bordercolor="#666666"
     borderopacity="1.0"
     inkscape:pageopacity="0.0"
     inkscape:pageshadow="2"
     inkscape:zoom="6.3375842"
     inkscape:cx="34.626691"
     inkscape:cy="50.250515"
     inkscape:document-units="px"
     inkscape:current-layer="layer3"
     showgrid="false"
     inkscape:window-width="1280"
     inkscape:window-height="1002"
     inkscape:window-x="-8"
     inkscape:window-y="-8"
     inkscape:window-maximized="1"
     showguides="true"
     inkscape:guide-bbox="true" />
  <metadata
     id="metadata7">
    <rdf:RDF>
      <cc:Work
         rdf:about="">
        <dc:format>image/svg+xml</dc:format>
        <dc:type
           rdf:resource="http://purl.org/dc/dcmitype/StillImage" />
        <dc:title></dc:title>
      </cc:Work>
    </rdf:RDF>
  </metadata>
  <g
     inkscape:groupmode="layer"
     id="layer2"
     inkscape:label="ultramarine"
     style="display:inline">
    <path
       style="fill:url(#linearGradient3893);fill-opacity:1;stroke:none"
       d="M 37.65625,0.375 36.3125,8.4375 c -4.3047,0.1881492 -8.352981,1.3393631 -11.96875,3.21875 l -5.25,-6.625 3,7.9375 c -3.678249,2.35715 -6.779796,5.527285 -9.0625,9.25 L 4.625,19.0625 11.71875,24.65625 C 10.060011,28.0591 9.0313151,31.817687 8.84375,35.8125 L 0,37.09375 8.875,38.5625 c 0.2108344,4.377742 1.385741,8.501019 3.34375,12.15625 l -6.1875,4.90625 7.4375,-2.78125 c 2.210158,3.394782 5.10237,6.298997 8.5,8.5 l -3,7.96875 5.25,-6.65625 c 3.61331,1.896779 7.687587,3.049909 12,3.25 l 1.25,8.65625 1.4375,-8.6875 c 4.277613,-0.200079 8.311278,-1.317624 11.90625,-3.1875 l 5.21875,6.65625 -2.96875,-7.9375 c 3.334151,-2.135387 6.198689,-4.937464 8.40625,-8.21875 L 68.9375,56 62.75,51.09375 c 2.083148,-3.747951 3.34672,-7.997246 3.5625,-12.53125 l 8.875,-1.46875 -8.90625,-1.28125 c -0.195932,-4.129474 -1.233892,-8.033571 -3,-11.53125 L 70.34375,18.6875 61.875,21.875 c -2.286769,-3.614299 -5.325277,-6.708764 -8.9375,-9 L 55.90625,5 50.6875,11.5625 C 47.098973,9.7164089 43.073855,8.6218435 38.8125,8.4375 L 37.65625,0.375 z M 37.5625,10.40625 c 14.793228,0 26.78125,11.988022 26.78125,26.78125 0,14.793228 -11.988022,26.75 -26.78125,26.75 -14.793228,0 -26.75,-11.956772 -26.75,-26.75 0,-14.793228 11.956772,-26.78125 26.75,-26.78125 z"
       id="path3920"
       inkscape:connector-curvature="0" />
    <path
       sodipodi:type="arc"
       style="color:#000000;fill:url(#radialGradient3901);fill-opacity:1;fill-rule:nonzero;stroke:#808080;stroke-width:1.39599705;stroke-linecap:butt;stroke-linejoin:miter;stroke-miterlimit:4;stroke-opacity:1;stroke-dasharray:none;stroke-dashoffset:0;marker:none;visibility:visible;display:inline;overflow:visible;enable-background:accumulate"
       sodipodi:cx="65.154839"
       sodipodi:cy="64.393394"
       sodipodi:rx="37.123108"
       sodipodi:ry="37.123108"
       d="m 102.27795,64.393394 a 37.123108,37.123108 0 1 1 -74.246219,0 37.123108,37.123108 0 1 1 74.246219,0 z"
       transform="matrix(0.71633389,0,0,0.71633389,-9.078869,-8.6584208)" />
    <path
       style="fill:#2269d1;fill-opacity:1;stroke:#4d4d4d;stroke-opacity:1"
       d="m 13.828599,13.176235 18.75514,-0.01444 C 20.625264,34.914827 15.899342,53.475117 37.457104,53.289754 59.014867,53.10439 53.80379,33.928342 41.673586,13.161792 l 19.610505,-0.168329 0.08418,11.174014 -10.936382,-2.188298 C 74.376999,48.403714 57.308193,66.69045 37.548506,66.781573 17.788821,66.872705 0.90440376,48.809933 23.152134,22.14751 l -9.491858,2.286903 z"
       id="path4101"
       inkscape:connector-curvature="0"
       sodipodi:nodetypes="cczcccczccc" />
    <path
       style="color:#000000;fill:#ffffff;fill-opacity:0.58823529;fill-rule:nonzero;stroke:none;marker:none;visibility:visible;display:inline;overflow:visible;enable-background:accumulate"
       d="m 13.590673,24.414223 1.314685,-1.472448 0.170932,-8.572128 15.355538,7e-6 2.261261,-1.156925 -18.878898,0 z"
       id="path3917"
       inkscape:connector-curvature="0"
       sodipodi:nodetypes="ccccccc" />
    <path
       style="color:#000000;fill:#ffffff;fill-opacity:0.58823529;fill-rule:nonzero;stroke:none;stroke-width:1px;marker:none;visibility:visible;display:inline;overflow:visible;enable-background:accumulate"
       d="m 41.604791,13.153756 2.026486,1.110717 16.302111,-0.105169 1.419862,-1.126121 z"
       id="path3919"
       inkscape:connector-curvature="0"
       sodipodi:nodetypes="ccccc" />
    <path
       style="color:#000000;fill:#ffffff;fill-opacity:0.58823529;fill-rule:nonzero;stroke:none;stroke-width:1px;marker:none;visibility:visible;display:inline;overflow:visible;enable-background:accumulate"
       d="m 23.063472,46.078808 c 1.932702,4.5754 5.533914,7.241548 14.582297,7.241026 9.048383,-5.22e-4 22.887945,-3.814787 8.031949,-32.790264 l 1.561768,0.669329 C 62.226912,50.595287 48.578891,55.260953 37.645769,55.104712 26.712647,54.94847 23.616414,50.453229 22.617252,48.086794 z"
       id="path3938"
       inkscape:connector-curvature="0"
       sodipodi:nodetypes="czcczcc" />
    <path
       style="color:#000000;fill:#ffffff;fill-opacity:0.58823529;fill-rule:nonzero;stroke:none;stroke-width:1px;marker:none;visibility:visible;display:inline;overflow:visible;enable-background:accumulate"
       d="m 17.495311,29.988123 0.525875,2.734547 c 0,0 -8.5989649,12.704171 -0.420259,24.287775 l 0.473287,2.379198 C 11.698427,52.62935 10.210308,42.282481 17.495311,29.988123 z"
       id="path3946"
       inkscape:connector-curvature="0"
       sodipodi:nodetypes="ccccc" />
    <path
       style="fill:#000000;fill-opacity:0.31372549;stroke:none"
       d="m 13.597441,24.43382 1.314685,-1.63021 10.37271,-2.261289 -2.156085,1.577625 z"
       id="path3954"
       inkscape:connector-curvature="0"
       sodipodi:nodetypes="ccccc" />
    <path
       style="color:#000000;fill:#000000;fill-opacity:0.31372549;fill-rule:nonzero;stroke:none;stroke-width:1px;marker:none;visibility:visible;display:inline;overflow:visible;enable-background:accumulate"
       d="m 32.535323,13.265311 c -0.05259,0 -1.998323,1.156925 -1.998323,1.156925 C 22.964406,26.780289 21.544517,36.9165 21.544517,36.9165 l 0.946575,2.419023 c 0,0 1.511844,-12.489429 10.044231,-26.070212 z"
       id="path3956"
       inkscape:connector-curvature="0"
       sodipodi:nodetypes="ccccc" />
    <path
       style="color:#000000;fill:#000000;fill-opacity:0.31372549;fill-rule:nonzero;stroke:none;stroke-width:1px;marker:none;visibility:visible;display:inline;overflow:visible;enable-background:accumulate"
       d="m 50.442909,22.02148 -1.259456,-1.312044 10.907698,2.192864 -0.157763,-8.795589 1.367274,-1.104336 0,11.109437 z"
       id="path3981"
       inkscape:connector-curvature="0"
       sodipodi:nodetypes="ccccccc" />
    <path
       style="color:#000000;fill:#000000;fill-opacity:0.31372549;fill-rule:nonzero;stroke:none;stroke-width:1px;marker:none;visibility:visible;display:inline;overflow:visible;enable-background:accumulate"
       d="m 23.961708,63.686733 2.007987,-0.594959 c 23.75044,8.861043 44.35613,-9.19472 29.22737,-32.150418 l 0.752748,-2.064259 c 18.906073,27.809815 -9.57562,45.285469 -31.988105,34.809636 z"
       id="path3989"
       inkscape:connector-curvature="0"
       sodipodi:nodetypes="ccccc" />
  </g>
  <g
     inkscape:groupmode="layer"
     id="layer3"
     inkscape:label="blood angel"
     style="display:none">
    <path
       style="font-size:medium;font-style:normal;font-variant:normal;font-weight:normal;font-stretch:normal;text-indent:0;text-align:start;text-decoration:none;line-height:normal;letter-spacing:normal;word-spacing:normal;text-transform:none;direction:ltr;block-progression:tb;writing-mode:lr-tb;text-anchor:start;baseline-shift:baseline;color:#000000;fill:#ffffff;fill-opacity:1;fill-rule:nonzero;stroke:#666666;stroke-width:0.5;stroke-miterlimit:4;stroke-dasharray:none;marker:none;visibility:visible;display:inline;overflow:visible;enable-background:accumulate;font-family:Sans;-inkscape-font-specification:Sans"
       d="M 1.5555226,19.783656 1.4248093,29.621609 13.842582,28.739135 2.4378381,33.80519 7.4376256,43.283616 18.22148,36.877507 l -8.4636917,9.184269 9.1826167,6.863687 5.32657,-7.81153 -3.039086,8.399846 10.032253,1.634212 c -1.629613,5.839804 1.306401,10.704275 6.817784,10.54167 5.511383,-0.162605 8.03129,-4.40351 6.1882,-10.574355 0,0 6.918542,-1.126584 9.836183,-1.601527 l -2.97373,-8.301793 5.261214,7.713477 9.182616,-6.863687 -8.496371,-9.216952 10.849212,6.438792 4.901753,-9.478426 -11.372066,-5.066055 12.450452,0.882474 -0.130714,-9.837953 c -9.247817,0.0046 -18.896665,-0.12717 -26.861604,-0.130737 0.613734,8.052742 -4.642926,9.945909 -9.243162,10.032731 -4.600237,0.08682 -9.021978,-1.882893 -9.285462,-10.032731 z"
       id="path4207"
       inkscape:connector-curvature="0"
       sodipodi:nodetypes="ccccccccccczcccccccccccczcc" />
    <path
       style="fill:url(#linearGradient4009);fill-opacity:1;stroke:none"
       d="M 4.0328082,21.809069 26.083568,21.677004 c 0,0 -0.528163,10.102913 8.978751,10.168946 l -4.225294,20.469953 -6.271924,-0.990481 5.941823,-16.375964 c -0.792243,-0.06603 -1.716527,-0.792385 -1.716527,-0.792385 L 18.55726,49.212396 13.407682,45.382532 25.819487,31.978013 c 0,0 -1.254386,-0.990481 -1.452445,-1.716835 L 8.5221838,39.637739 5.8813748,34.619299 22.782556,27.091637 c 0,0 -0.561172,-0.825402 -0.462143,-1.650803 L 3.966788,26.761477 z"
       id="path4103"
       inkscape:connector-curvature="0"
       sodipodi:nodetypes="ccccccccccccccccc" />
    <path
       style="color:#000000;fill:url(#linearGradient4009-8);fill-opacity:1;fill-rule:nonzero;stroke:none;marker:none;visibility:visible;display:inline;overflow:visible;enable-background:accumulate"
       d="m 71.624175,21.809069 -22.05076,-0.132065 c 0,0 0.528163,10.102913 -8.978751,10.168946 l 4.225295,20.469953 6.271923,-0.990481 -5.941823,-16.375964 c 0.792244,-0.06603 1.716527,-0.792385 1.716527,-0.792385 L 57.099724,49.212396 62.249301,45.382532 49.837497,31.978013 c 0,0 1.254385,-0.990481 1.452444,-1.716835 l 15.844858,9.376561 2.64081,-5.01844 -16.901182,-7.527662 c 0,0 0.561172,-0.825402 0.462143,-1.650803 l 18.353625,1.320643 z"
       id="path4103-3"
       inkscape:connector-curvature="0"
       sodipodi:nodetypes="ccccccccccccccccc" />
    <path
       style="color:#000000;fill:url(#linearGradient4009-1);fill-opacity:1;fill-rule:nonzero;stroke:none;marker:none;visibility:visible;display:inline;overflow:visible;enable-background:accumulate"
       d="m 37.921858,40.384058 c 0,0 -4.668336,13.727376 -4.668336,17.742867 -0.01062,6.80285 9.471923,6.627236 9.336673,0 -0.04668,-4.108874 -4.668337,-17.742867 -4.668337,-17.742867 z"
       id="path4123"
       inkscape:connector-curvature="0"
       sodipodi:nodetypes="cccc" />
    <path
       style="fill:#ffffff;fill-opacity:1;stroke:none"
       d="m 36.435818,49.722508 c 0,0 -1.672685,5.961225 -1.719819,7.716856 -0.08325,2.974212 2.989106,2.97986 3.023105,0.08116 0.03312,-1.796864 -1.303286,-7.798018 -1.303286,-7.798018 z"
       id="path4123-0"
       inkscape:connector-curvature="0"
       sodipodi:nodetypes="cccc" />
    <path
       style="fill:#cccccc;stroke:none"
       d="m 1.6178165,29.366416 1.9525372,-1.952536 17.6844083,-1.283096 0.112564,0.964117 -8.421082,3.786663 -4.0181914,0.387509 4.9542554,-2.431536 -0.102974,-0.307922 z"
       id="path4060"
       inkscape:connector-curvature="0"
       sodipodi:nodetypes="ccccccccc" />
    <path
       style="color:#000000;fill:#cccccc;fill-opacity:1;fill-rule:nonzero;stroke:none;stroke-width:1px;marker:none;visibility:visible;display:inline;overflow:visible;enable-background:accumulate"
       d="m 7.4949695,43.047761 0.9861802,-2.840198 15.4633053,-8.915069 0.907286,0.907285 -4.575876,5.009796 -4.812559,2.95854 2.919093,-3.155776 -0.355025,-0.355025 z"
       id="path4062"
       inkscape:connector-curvature="0"
       sodipodi:nodetypes="ccccccccc" />
    <path
       style="color:#000000;fill:#cccccc;fill-opacity:1;fill-rule:nonzero;stroke:none;stroke-width:1px;marker:none;visibility:visible;display:inline;overflow:visible;enable-background:accumulate"
       d="m 13.214815,48.333687 1.775124,-1.065074 3.629143,2.642963 10.137933,-14.871598 0.907285,0.473367 -1.143969,3.589696 -4.023615,6.114317 -0.473366,-0.27613 -5.207032,7.652758 z"
       id="path4081"
       inkscape:connector-curvature="0" />
    <path
       style="color:#000000;fill:#cccccc;fill-opacity:1;fill-rule:nonzero;stroke:none;stroke-width:1px;marker:none;visibility:visible;display:inline;overflow:visible;enable-background:accumulate"
       d="m 21.61707,53.264588 2.642963,-1.459546 7.021603,1.183416 4.260298,-20.749231 1.577889,2.366832 -0.828392,5.36482 c 0,0 -3.94472,8.954517 -4.694217,15.029387 z"
       id="path4089"
       inkscape:connector-curvature="0"
       sodipodi:nodetypes="cccccccc" />
    <path
       style="color:#000000;fill:#cccccc;fill-opacity:1;fill-rule:nonzero;stroke:none;stroke-width:1px;marker:none;visibility:visible;display:inline;overflow:visible;enable-background:accumulate"
       d="m 28.228109,19.826878 -1.785177,1.840964 c 0.749497,10.492957 8.647912,9.6077 8.647912,9.6077 l 4.032225,-1.413813 c 0,0 -10.776618,2.075442 -10.89496,-10.034851 z"
       id="path4097"
       inkscape:connector-curvature="0"
       sodipodi:nodetypes="ccccc" />
    <path
       style="color:#000000;fill:#cccccc;fill-opacity:1;fill-rule:nonzero;stroke:none;stroke-width:1px;marker:none;visibility:visible;display:inline;overflow:visible;enable-background:accumulate"
       d="m 32.031133,62.219105 c 2.051255,1.893466 3.708037,0.828391 3.708037,0.828391 5.246479,1.814572 7.7711,-2.287938 7.258286,-5.167584 0,0 -1.380652,-8.75728 -4.930901,-18.382399 l 0.03945,-1.932913 c 4.10251,7.810547 5.798739,17.277877 5.798739,17.277877 l 0.907286,-2.209044 6.706026,-1.065075 -5.956529,-16.212802 5.79874,9.664566 -0.473367,0.27613 2.879646,8.047231 -9.901249,1.538441 c 4.418087,10.690193 -8.402255,13.688181 -11.834164,7.337181 z"
       id="path4105"
       inkscape:connector-curvature="0"
       sodipodi:nodetypes="cccccccccccccc" />
    <path
       style="color:#000000;fill:#cccccc;fill-opacity:1;fill-rule:nonzero;stroke:none;stroke-width:1px;marker:none;visibility:visible;display:inline;overflow:visible;enable-background:accumulate"
       d="m 56.488402,52.67288 0.591708,-3.076882 5.759292,-4.063062 -12.465317,-13.412051 0.946733,-0.946733 5.877634,5.443715 -0.236684,0.433919 8.244467,8.915069 z"
       id="path4113"
       inkscape:connector-curvature="0"
       sodipodi:nodetypes="ccccccccc" />
    <path
       style="color:#000000;fill:#cccccc;fill-opacity:1;fill-rule:nonzero;stroke:none;stroke-width:1px;marker:none;visibility:visible;display:inline;overflow:visible;enable-background:accumulate"
       d="m 64.298949,40.838718 3.116329,-0.788944 3.11633,-5.680399 -12.268082,-5.246478 3.037435,-0.118342 11.203007,4.930901 -4.694218,9.1912 z"
       id="path4121"
       inkscape:connector-curvature="0"
       sodipodi:nodetypes="cccccccc" />
    <path
       style="color:#000000;fill:#cccccc;fill-opacity:1;fill-rule:nonzero;stroke:none;stroke-width:1px;marker:none;visibility:visible;display:inline;overflow:visible;enable-background:accumulate"
       d="m 65.442918,28.767872 1.656783,-1.854018 4.970348,0.315577 -0.07889,-5.680398 1.538441,-1.538441 0.118341,9.388436 z"
       id="path4129"
       inkscape:connector-curvature="0"
       sodipodi:nodetypes="ccccccc" />
  </g>
  <g
     inkscape:groupmode="layer"
     id="layer4"
     inkscape:label="alien"
     style="display:none">
    <path
       style="color:#000000;fill:url(#linearGradient3975);fill-opacity:1;fill-rule:nonzero;stroke:none;marker:none;visibility:visible;display:inline;overflow:visible;enable-background:accumulate"
       d="M 37.516605,-0.02420666 27.254353,12.20751 l 5.745533,0 -0.166056,14.989533 -10.693998,-10.609475 4.051764,-3.958273 -15.775307,-1.816914 1.627346,15.703319 4.051764,-3.958275 10.926476,10.869032 -14.546493,-0.129779 0,-5.612964 -12.48740145,9.603683 12.48740145,10.025466 0,-5.612963 14.612916,0.12978 -10.195831,9.798351 -4.051762,-3.958274 -1.859826,15.44376 16.074206,-1.589798 -4.051761,-3.958276 9.830506,-9.441457 0.166056,14.632636 -5.745533,0 10.262252,12.231719 9.830507,-12.231719 -5.745532,0 -0.166056,-15.31398 11.325009,10.804145 -4.051762,3.958273 16.074208,1.557354 L 62.85673,48.318655 58.804968,52.276929 47.845279,41.82968 62.491407,41.6999 l 0,5.612963 12.520613,-10.025466 -12.520613,-9.603683 0,5.612964 -14.646128,0.129779 10.461521,-10.479694 4.051763,3.958274 1.560924,-15.703317 -15.775306,1.849357 4.051763,3.958274 -10.76042,10.771698 0.166056,-15.573539 5.745532,0 -9.830507,-12.23171666 z M 35.62357,33.264233 l 2.690104,0 2.623683,2.5307 0,4.185389 -1.760192,1.719578 -1.92625,0 -3.188272,-3.082263 0,-3.828494 1.560927,-1.52491 z"
       id="path3816-2"
       inkscape:connector-curvature="0" />
    <path
       style="color:#000000;fill:#e33b20;fill-opacity:0.85;fill-rule:nonzero;stroke:none;marker:none;visibility:visible;display:inline;overflow:visible;enable-background:accumulate"
       d="m 37.438626,2.4094098 -7.895932,8.7569982 4.659894,0 0,18.955073 -13.89772,-13.57828 3.203678,-3.129758 -11.649737,-0.980025 0.744288,11.66546 3.30076,-3.224598 14.027161,13.704735 -18.622335,0 0,-4.42592 -8.9961859,7.334381 8.9961859,7.74536 0,-4.552374 18.428173,0 -13.119811,12.848703 -3.203677,-3.098143 -1.003172,11.380937 11.940981,-0.758729 -3.30076,-3.192986 13.152171,-12.880317 0,19.013378 -4.659894,0 7.895932,8.756998 7.539969,-8.756998 -4.530453,0 0,-19.171447 14.190223,13.541745 -3.300759,3.224598 11.940981,0.727115 -1.035533,-11.380936 -3.203677,3.129757 -13.996061,-13.383675 18.558874,-0.06446 0,4.552375 8.963826,-7.74536 -8.963826,-7.334381 0,4.42592 -18.817757,0.06446 13.607736,-13.38983 3.300759,3.224599 0.711928,-11.66546 -11.649737,1.011638 3.203678,3.129758 -13.510655,13.294989 0,-19.018301 4.530453,0 z m -0.938451,33.4025402 0.80901,0 1.197334,1.138093 0,2.307802 -0.355964,0.347751 -0.06472,0 -1.779822,-1.738755 0,-1.865209 z"
       id="path3816-0"
       inkscape:connector-curvature="0"
       sodipodi:nodetypes="cccccccccccccccccccccccccccccccccccccccccccccccccccccccccc" />
    <path
       style="fill:#810505;fill-opacity:0.5;stroke:none;display:inline"
       d="M 11.322679,45.162934 9.9227194,39.3977 31.635191,39.142259 l 0.03302,1.612417 -20.320566,-0.03975 z"
       id="path4024-6"
       inkscape:connector-curvature="0"
       sodipodi:nodetypes="cccccc" />
    <path
       style="fill:#810505;fill-opacity:0.5;stroke:none;display:inline"
       d="m 45.00506,11.134221 -5.901401,-1.3676596 -0.261473,21.2114896 1.650501,0.03226 -0.04068,-19.851699 z"
       id="path4024-6-1"
       inkscape:connector-curvature="0"
       sodipodi:nodetypes="cccccc" />
    <path
       style="fill:#810505;fill-opacity:0.5;stroke:none;display:inline"
       d="M 61.570087,24.422675 58.490841,19.317856 43.408504,33.800837 44.52823,34.985885 58.39753,21.232164 z"
       id="path4024-9"
       inkscape:connector-curvature="0"
       sodipodi:nodetypes="cccccc" />
    <path
       style="fill:#810505;fill-opacity:0.5;stroke:none;display:inline"
       d="m 63.644585,45.08425 1.39996,-5.765234 -21.71247,-0.255441 -0.03303,1.612417 20.320566,-0.03975 z"
       id="path4024-6-6"
       inkscape:connector-curvature="0"
       sodipodi:nodetypes="cccccc" />
    <path
       style="fill:#810505;fill-opacity:0.5;stroke:none;display:inline"
       d="M 24.326151,61.000636 19.100763,57.992439 33.463948,43.709312 34.676983,44.803201 21.060284,57.901282 z"
       id="path4024-9-2"
       inkscape:connector-curvature="0"
       sodipodi:nodetypes="cccccc" />
    <path
       style="fill:#810505;fill-opacity:0.5;stroke:none;display:inline"
       d="m 45.046849,63.961908 -5.901402,1.36766 -0.261473,-21.211488 1.650501,-0.03226 -0.04068,19.851697 z"
       id="path4024-6-1-4"
       inkscape:connector-curvature="0"
       sodipodi:nodetypes="cccccc" />
    <path
       style="color:#000000;fill:#810505;fill-opacity:0.5;fill-rule:nonzero;stroke:none;marker:none;visibility:visible;display:inline;overflow:visible;enable-background:accumulate"
       d="M 62.250928,50.920648 59.094609,55.980341 43.34667,41.176236 44.484241,40.007523 59.030336,54.064888 z"
       id="path4024-6-1-4-1"
       inkscape:connector-curvature="0"
       sodipodi:nodetypes="cccccc" />
    <path
       style="fill:#810505;fill-opacity:0.5;stroke:none;display:inline"
       d="M 51.39642,61.509132 56.575616,58.425641 41.223919,43.363352 40.027604,44.474675 54.614923,58.362851 z"
       id="path4024-6-1-4-1-2"
       inkscape:connector-curvature="0"
       sodipodi:nodetypes="cccccc" />
    <path
       style="fill:#ffffff;fill-opacity:0.75;stroke:none"
       d="m 14.11033,22.706553 -0.08062,-8.129537 8.14956,0.121096 1.34694,-1.270282 -11.694553,-0.98575 0.77244,11.773708 z"
       id="path4188"
       inkscape:connector-curvature="0"
       sodipodi:nodetypes="ccccccc" />
    <path
       style="fill:#ffffff;fill-opacity:0.75;stroke:none;display:inline"
       d="M 11.349715,31.931105 5.4105977,37.625963 7.0731487,41.492005 2.3110521,37.61829 11.376263,29.823413 z"
       id="path4188-8"
       inkscape:connector-curvature="0"
       sodipodi:nodetypes="cccccc" />
    <path
       style="fill:#ffffff;fill-opacity:0.75;stroke:none;display:inline"
       d="m 31.618724,11.152976 5.829362,-5.8020807 3.957351,1.6241901 -3.965206,-4.6522183 -7.97898,8.8560459 z"
       id="path4188-8-1"
       inkscape:connector-curvature="0"
       sodipodi:nodetypes="cccccc" />
    <path
       style="color:#000000;fill:#ffffff;fill-opacity:0.75;fill-rule:nonzero;stroke:none;stroke-width:1px;marker:none;visibility:visible;display:inline;overflow:visible;enable-background:accumulate"
       d="m 50.938755,13.776819 11.282661,0.966872 0.197942,-1.933743 z"
       id="path4237"
       inkscape:connector-curvature="0" />
    <path
       style="color:#000000;fill:#ffffff;fill-opacity:0.75;fill-rule:nonzero;stroke:none;stroke-width:1px;marker:none;visibility:visible;display:inline;overflow:visible;enable-background:accumulate"
       d="m 13.410507,50.54662 -0.989706,11.280162 2.111375,-0.06446 z"
       id="path4237-4"
       inkscape:connector-curvature="0"
       sodipodi:nodetypes="cccc" />
    <path
       sodipodi:type="arc"
       style="color:#000000;fill:url(#radialGradient4001);fill-opacity:1;fill-rule:nonzero;stroke:#000000;stroke-width:2.91142726;stroke-miterlimit:4;stroke-opacity:1;stroke-dasharray:none;marker:none;visibility:visible;display:inline;overflow:visible;enable-background:accumulate"
       id="path3977"
       sodipodi:cx="42.232143"
       sodipodi:cy="41.339287"
       sodipodi:rx="11.696428"
       sodipodi:ry="10.982142"
       d="m 53.928572,41.339287 a 11.696428,10.982142 0 1 1 -23.392857,0 11.696428,10.982142 0 1 1 23.392857,0 z"
       transform="matrix(0.6872362,0,0,0.71933491,8.2073337,7.6465778)" />
    <path
       style="fill:url(#linearGradient4019);fill-opacity:1;stroke:none"
       d="m 35.619285,44.522017 c -0.462293,-5.509818 3.949225,-2.233092 4.873807,-8.28486 1.017041,5.645306 -4.180371,3.723453 -2.885956,8.194535"
       id="path4003"
       inkscape:connector-curvature="0"
       sodipodi:nodetypes="ccc" />
    <path
       style="color:#000000;fill:#999999;fill-opacity:1;fill-rule:nonzero;stroke:none;stroke-width:2.00192451;marker:none;visibility:visible;display:inline;overflow:visible;enable-background:accumulate"
       d="m 31.199395,43.203009 c 8.485362,6.868144 17.422375,-2.277705 13.298996,-9.582447 2.640028,9.014322 -5.660373,14.683967 -13.298996,9.582447 z"
       id="path7754-4-3"
       inkscape:connector-curvature="0"
       sodipodi:nodetypes="ccc" />
    <path
       style="color:#000000;fill:#ffffff;fill-opacity:1;fill-rule:nonzero;stroke:none;stroke-width:2.00192451;marker:none;visibility:visible;display:inline;overflow:visible;enable-background:accumulate"
       d="m 39.051827,30.201117 c -5.639392,-2.811637 -10.937298,3.280437 -9.659887,6.984458 0.11263,-4.502027 4.307371,-8.530838 9.659887,-6.984458 z"
       id="path7754-4-3-5"
       inkscape:connector-curvature="0"
       sodipodi:nodetypes="ccc" />
  </g>
  <g
     inkscape:label="imperial fist"
     inkscape:groupmode="layer"
     id="layer1"
     transform="translate(0,-977.36218)"
     style="display:none">
    <path
       sodipodi:type="arc"
       style="color:#000000;fill:#ffd62b;fill-opacity:1;fill-rule:nonzero;stroke:#983500;stroke-width:3.51394415;stroke-linecap:butt;stroke-linejoin:miter;stroke-miterlimit:4;stroke-opacity:1;stroke-dasharray:none;stroke-dashoffset:0;marker:none;visibility:visible;display:inline;overflow:visible;enable-background:accumulate"
       id="path3753"
       sodipodi:cx="65.154839"
       sodipodi:cy="64.393394"
       sodipodi:rx="37.123108"
       sodipodi:ry="37.123108"
       d="m 102.27795,64.393394 a 37.123108,37.123108 0 1 1 -74.246219,0 37.123108,37.123108 0 1 1 74.246219,0 z"
       transform="matrix(0.8537415,0,0,0.8537415,-17.870938,962.1578)" />
    <path
       style="color:#000000;fill:#000000;fill-opacity:0.5;fill-rule:nonzero;stroke:none;stroke-width:2.00192451;marker:none;visibility:visible;display:inline;overflow:visible;enable-background:accumulate"
       d="M 38.722462,984.95118 C 3.250426,986.9297 5.794237,1018.7273 5.794237,1018.7273 c 0,0 0.4239689,-31.7976 32.928225,-33.77612 z"
       id="path7754"
       inkscape:connector-curvature="0"
       sodipodi:nodetypes="ccc" />
    <path
       sodipodi:type="arc"
       style="color:#000000;fill:#ffffff;fill-opacity:0.75;fill-rule:nonzero;stroke:none;stroke-width:3;marker:none;visibility:visible;display:inline;overflow:visible;enable-background:accumulate"
       id="path7552"
       sodipodi:cx="26.356712"
       sodipodi:cy="33.87505"
       sodipodi:rx="12.931041"
       sodipodi:ry="10.457891"
       d="m 39.287753,33.87505 a 12.931041,10.457891 0 1 1 -25.862081,0 12.931041,10.457891 0 1 1 25.862081,0 z"
       transform="matrix(0.38887007,-0.5871285,0.61027835,0.22369531,-9.7947794,1010.7963)" />
    <path
       style="fill:#803300;fill-opacity:0.35;stroke:none"
       d="M 12.737948,1031.56 C 40.115992,1047.6683 68.422116,1017.9798 51.60661,991.65967 90.316487,1021.401 41.531547,1070.0707 12.737948,1031.56 z"
       id="path7042"
       inkscape:connector-curvature="0"
       sodipodi:nodetypes="ccc" />
    <path
       style="fill:#5599ff;stroke:#2d5187;stroke-opacity:1"
       d="m 48.75,25.5 c 0,0 -3.714277,5.123653 -9.6875,9.78125 3.841269,4.031152 5.046205,9.178991 5.625,14.3125 2.447698,-0.115717 4.725512,-0.319522 6.65625,-0.625 2.665497,-2.769908 6.66554,-8.070855 6.75,-15.25 0,0 -7.323445,-3.54675 -9.34375,-8.21875 z m -13,12.125 c -4.405078,2.833346 -9.658367,5.0625 -15.40625,5.0625 0,0 3.058198,2.871424 4.3125,6.28125 5.021414,0.506433 10.715457,0.768843 15.96875,0.71875 C 40.385401,44.903533 38.725439,40.963032 35.75,37.625 z M 23.34375,52.84375 c -2.102853,2.817703 -4.15625,7 -4.15625,7 0,0 14.514966,0.511834 21.65625,7.1875 0.235731,-4.831978 0.358537,-8.761146 0.125,-13.28125 -5.854072,0.06411 -12.142359,-0.312566 -17.625,-0.90625 z m 27.125,0.3125 c -1.707323,0.216318 -3.561091,0.374139 -5.5,0.46875 0.197474,4.872492 0.169446,9.535957 -0.1875,14.53125 5.271685,-3.294142 8,-6.90625 8,-6.90625 0,0 -0.198725,-4.481065 -2.3125,-8.09375 z"
       transform="translate(0,977.36218)"
       id="path3755"
       inkscape:connector-curvature="0"
       sodipodi:nodetypes="ccccccccccccccccccccc" />
    <path
       style="fill:#5599ff;fill-opacity:1;stroke:#2d5187;stroke-opacity:1"
       d="m 27.661801,22.401466 c 0,0 -7.20576,1.455341 -7.505551,2.254784 4.643425,1.431258 9.749525,3.725077 14.15625,6.875 3.230302,-0.144175 8.419882,-1.20497 9.982069,-6.672573 z M 18.65625,26.3125 c -1.439702,2.559413 -3.388627,8.015027 1.15625,14.46875 0,0 8.670538,0.294025 11.725279,-6.65007 0,0 -4.874778,-5.299979 -12.881529,-7.81868 z"
       transform="translate(0,977.36218)"
       id="path3757"
       inkscape:connector-curvature="0"
       sodipodi:nodetypes="ccccccccc" />
    <path
       style="fill:#5599ff;fill-opacity:1;stroke:#2d5187;stroke-opacity:1"
       d="m 20.681273,997.12768 c -0.878284,-5.06575 -0.736377,-10.24999 0.258829,-15.53332 3.103074,-1.98158 5.92591,-2.1114 8.485946,-0.50473 0.662842,4.93541 1.116425,9.96958 0.0022,15.74335 -3.302943,2.7575 -6.155022,2.419 -8.74703,0.2947 z"
       id="path3759"
       inkscape:connector-curvature="0"
       sodipodi:nodetypes="ccccc" />
    <path
       style="fill:#5599ff;fill-opacity:1;stroke:#2d5187;stroke-opacity:1"
       d="m 31.50612,995.76528 c -0.467031,-5.12149 0.09228,-10.27668 1.510013,-15.46009 3.252437,-1.71836 6.076314,-1.61432 8.498301,0.19867 0.262815,4.97375 0.309111,10.02862 -1.26673,15.691 -3.514178,2.47512 -6.329454,1.90192 -8.741583,-0.42961 z"
       id="path3759-3"
       inkscape:connector-curvature="0"
       sodipodi:nodetypes="ccccc" />
    <path
       style="fill:#5599ff;fill-opacity:1;stroke:#2d5187;stroke-opacity:1"
       d="m 42.110308,997.21598 c -0.100779,-5.14231 0.824499,-10.24317 2.607985,-15.30937 3.366427,-1.47607 6.17552,-1.16582 8.461967,0.81954 -0.09237,4.97999 -0.406481,10.02506 -2.381796,15.55743 -3.681417,2.21182 -6.448499,1.4342 -8.688153,-1.0677 z"
       id="path3759-3-0"
       inkscape:connector-curvature="0"
       sodipodi:nodetypes="ccccc" />
    <path
       style="fill:#5599ff;fill-opacity:1;stroke:#2d5187;stroke-opacity:1"
       d="m 51.878726,1002.3482 c 0.343131,-5.07122 1.579134,-10.00204 3.561956,-14.81558 3.064642,-1.12655 5.492628,-0.54895 7.323581,1.62671 -0.498251,4.89257 -1.195665,9.82765 -3.385154,15.08167 -3.40149,1.82 -5.753596,0.7866 -7.500367,-1.8929 z"
       id="path3759-3-0-1"
       inkscape:connector-curvature="0"
       sodipodi:nodetypes="ccccc" />
    <path
       style="fill:#000000;fill-opacity:0.3;stroke:none"
       d="m 21.784816,19.28883 c 0.749477,-3.547527 7.14502,-2.048571 6.895194,-13.7903874 0.999304,6.4455074 -0.04997,13.4406314 -0.04997,13.4406314 0,0 -3.147805,3.247736 -6.845228,0.349756 z"
       id="path7554"
       inkscape:connector-curvature="0"
       transform="translate(0,977.36218)"
       sodipodi:nodetypes="cccc" />
    <path
       style="fill:#000000;fill-opacity:0.3;stroke:none;display:inline"
       d="m 32.411491,995.29995 c 0.749477,-3.54753 8.144323,-1.84871 7.894497,-13.59053 0.649548,6.79527 -0.799447,13.59053 -0.799447,13.59053 0,0 -3.397631,2.89799 -7.09505,0 z"
       id="path7554-7"
       inkscape:connector-curvature="0"
       sodipodi:nodetypes="cccc" />
    <path
       style="fill:#000000;fill-opacity:0.3;stroke:none;display:inline"
       d="m 43.286017,996.75649 c 0.749477,-3.54753 7.194985,-0.44968 8.893801,-12.64119 -0.04997,7.49478 -2.298402,13.3407 -2.298402,13.3407 0,0 -2.89798,2.19848 -6.595399,-0.69951 z"
       id="path7554-7-7"
       inkscape:connector-curvature="0"
       sodipodi:nodetypes="cccc" />
    <path
       style="fill:#000000;fill-opacity:0.3;stroke:none;display:inline"
       d="m 52.697351,1002.0952 c 0.749477,-3.54751 5.845925,2.898 8.943766,-11.04229 -0.699512,7.74461 -3.04788,12.39139 -3.04788,12.39139 0,0 -3.19777,2.0486 -5.895886,-1.3491 z"
       id="path7554-2"
       inkscape:connector-curvature="0"
       sodipodi:nodetypes="cccc" />
    <path
       style="color:#000000;fill:#000000;fill-opacity:0.3;fill-rule:nonzero;stroke:none;stroke-width:1px;marker:none;visibility:visible;display:inline;overflow:visible;enable-background:accumulate"
       d="m 43.969353,41.573298 c 7.894498,-3.797353 9.643279,-9.393452 9.643279,-9.393452 l 3.447597,2.148502 c -0.09993,2.947946 -1.049268,8.49408 -6.295612,13.740423 l -5.246343,0.449686 c -0.199861,-3.597492 -1.548921,-6.945159 -1.548921,-6.945159 z"
       id="path7610"
       inkscape:connector-curvature="0"
       transform="translate(0,977.36218)"
       sodipodi:nodetypes="cccccc" />
    <path
       style="color:#000000;fill:#000000;fill-opacity:0.3;fill-rule:nonzero;stroke:none;stroke-width:1px;marker:none;visibility:visible;display:inline;overflow:visible;enable-background:accumulate"
       d="m 38.52315,44.071557 c 0,0 1.049268,1.498956 1.099233,4.696727 0,0 -10.042999,0 -14.290039,-0.649548 l -0.449688,-0.799443 c 7.994428,-0.19986 13.640494,-3.247736 13.640494,-3.247736 z"
       id="path7612"
       inkscape:connector-curvature="0"
       transform="translate(0,977.36218)"
       sodipodi:nodetypes="ccccc" />
    <path
       style="color:#000000;fill:#000000;fill-opacity:0.3;fill-rule:nonzero;stroke:none;stroke-width:1px;marker:none;visibility:visible;display:inline;overflow:visible;enable-background:accumulate"
       d="m 23.46875,53.875 c 8.287989,1.845645 12.695763,4.062859 16.59912,5.616839 L 40.028459,54.75 C 35.709363,54.76574 30.599521,54.579274 23.46875,53.875 z m 26.5,0.40625 c 0,0 -1.126211,0.137434 -3.982281,0.273089 l 0.07882,6.610072 c 1.985239,0.365405 3.414132,0.253792 5.872209,-0.445661 0,0 -0.131553,-2.268476 -1.96875,-6.4375 z"
       transform="translate(0,977.36218)"
       id="path7631"
       inkscape:connector-curvature="0"
       sodipodi:nodetypes="ccccccccc" />
    <path
       style="color:#000000;fill:#ffffff;fill-opacity:0.5;fill-rule:nonzero;stroke:none;stroke-width:1px;marker:none;visibility:visible;display:inline;overflow:visible;enable-background:accumulate"
       d="m 27.4375,23.59375 -4.21875,1.0625 c 1.498583,0.335912 5.013536,1.300475 8.28125,3.53125 1.466123,-1.358826 3.131387,-2.513352 5.1875,-3.0625 l -9.25,-1.53125 z m -8.15625,4.125 c -0.0098,0.02156 -0.02183,0.04071 -0.03125,0.0625 0,0 -1.961173,4.709175 -0.0625,8.90625 3.728607,0.887764 6.104964,-1.54413 8.59375,-4.4375 -3.832578,-3.24352 -7.787144,-4.350555 -8.5,-4.53125 z"
       transform="translate(0,977.36218)"
       id="path7655"
       inkscape:connector-curvature="0" />
    <path
       style="color:#000000;fill:#ffffff;fill-opacity:0.5;fill-rule:nonzero;stroke:none;stroke-width:1px;marker:none;visibility:visible;display:inline;overflow:visible;enable-background:accumulate"
       d="m 22.011035,5.0805179 c 3.073772,-2.2258349 5.829567,-0.7772758 5.829567,-0.7772758 0,0 -2.508481,4.2750164 -6.288867,4.2750164 z"
       id="path7660"
       inkscape:connector-curvature="0"
       transform="translate(0,977.36218)"
       sodipodi:nodetypes="cccc" />
    <path
       style="color:#000000;fill:#ffffff;fill-opacity:0.5;fill-rule:nonzero;stroke:none;stroke-width:1px;marker:none;visibility:visible;display:inline;overflow:visible;enable-background:accumulate"
       d="m 33.776162,981.20811 c 3.073772,-2.22584 6.536181,-0.14133 6.536181,-0.14133 0,0 -3.639064,3.49775 -7.41945,3.49775 z"
       id="path7660-2"
       inkscape:connector-curvature="0"
       sodipodi:nodetypes="cccc" />
    <path
       style="color:#000000;fill:#ffffff;fill-opacity:0.5;fill-rule:nonzero;stroke:none;stroke-width:1px;marker:none;visibility:visible;display:inline;overflow:visible;enable-background:accumulate"
       d="m 45.576622,982.79735 c 3.073772,-2.22584 6.394858,0.49462 6.394858,0.49462 0,0 -3.780387,2.50849 -7.560773,2.50849 z"
       id="path7660-2-8"
       inkscape:connector-curvature="0"
       sodipodi:nodetypes="cccc" />
    <path
       style="color:#000000;fill:#ffffff;fill-opacity:0.5;fill-rule:nonzero;stroke:none;stroke-width:1px;marker:none;visibility:visible;display:inline;overflow:visible;enable-background:accumulate"
       d="m 56.246498,988.48037 c 3.639063,-1.30724 5.546921,1.13057 5.546921,1.13057 0,0 -2.93245,1.87254 -6.712836,1.87254 z"
       id="path7660-2-8-4"
       inkscape:connector-curvature="0"
       sodipodi:nodetypes="cccc" />
    <path
       style="color:#000000;fill:#ffffff;fill-opacity:0.35;fill-rule:nonzero;stroke:none;stroke-width:2.00192451;marker:none;visibility:visible;display:inline;overflow:visible;enable-background:accumulate"
       d="m 17.066903,1042.2458 c 34.058841,23.7208 64.905971,-15.7886 48.717255,-39.7719 12.898117,29.8863 -16.013105,58.3791 -48.717255,39.7719 z"
       id="path7754-4"
       inkscape:connector-curvature="0"
       sodipodi:nodetypes="ccc" />
  </g>
</svg>
